HIERARCHY
ROOT hip
{
  OFFSET 0 0 0
  CHANNELS 6 Xposition Yposition Zposition Zrotation Yrotation Xrotation
  JOINT abdomen
  {
    OFFSET 0 20.6881 -0.73152
    CHANNELS 3 Zrotation Xrotation Yrotation
    JOINT chest
    {
      OFFSET 0 11.7043 -0.48768
      CHANNELS 3 Zrotation Xrotation Yrotation
      JOINT neck
      {
        OFFSET 0 22.1894 -2.19456
        CHANNELS 3 Zrotation Xrotation Yrotation
        JOINT head
        {
          OFFSET -0.24384 7.07133 1.2192
          CHANNELS 3 Zrotation Xrotation Yrotation
          JOINT leftEye
          {
            OFFSET 4.14528 8.04674 8.04672
            CHANNELS 3 Zrotation Xrotation Yrotation
            End Site
            {
              OFFSET 1 0 0
            }
          }
          JOINT rightEye
          {
            OFFSET -3.6576 8.04674 8.04672
            CHANNELS 3 Zrotation Xrotation Yrotation
            End Site
            {
              OFFSET 1 0 0
            }
          }
        }
      }
      JOINT rCollar
      {
        OFFSET -2.68224 19.2634 -4.8768
        CHANNELS 3 Zrotation Xrotation Yrotation
        JOINT rShldr
        {
          OFFSET -8.77824 -1.95073 1.46304
          CHANNELS 3 Zrotation Xrotation Yrotation
          JOINT rForeArm
          {
            OFFSET -28.1742 -1.7115 0.48768
            CHANNELS 3 Zrotation Xrotation Yrotation
            JOINT rHand
            {
              OFFSET -22.5879 0.773209 7.07136
              CHANNELS 3 Zrotation Xrotation Yrotation
              JOINT rThumb1
              {
                OFFSET -1.2192 -0.487915 3.41376
                CHANNELS 3 Zrotation Xrotation Yrotation
                JOINT rThumb2
                {
                  OFFSET -3.37035 -0.52449 3.41376
                  CHANNELS 3 Zrotation Xrotation Yrotation
                  End Site
                  {
                    OFFSET -1.78271 -1.18214 1.43049
                  }
                }
              }
              JOINT rIndex1
              {
                OFFSET -7.75947 0.938293 5.60832
                CHANNELS 3 Zrotation Xrotation Yrotation
                JOINT rIndex2
                {
                  OFFSET -2.54057 -0.884171 1.56538
                  CHANNELS 3 Zrotation Xrotation Yrotation
                  End Site
                  {
                    OFFSET -1.62519 -0.234802 1.16502
                  }
                }
              }
              JOINT rMid1
              {
                OFFSET -8.24714 1.18213 3.41376
                CHANNELS 3 Zrotation Xrotation Yrotation
                JOINT rMid2
                {
                  OFFSET -3.10165 -0.590103 1.0647
                  CHANNELS 3 Zrotation Xrotation Yrotation
                  End Site
                  {
                    OFFSET -2.48547 -0.328903 0.83742
                  }
                }
              }
              JOINT rRing1
              {
                OFFSET -8.82822 0.546677 1.51678
                CHANNELS 3 Zrotation Xrotation Yrotation
                JOINT rRing2
                {
                  OFFSET -2.60934 -0.819778 -0.0198488
                  CHANNELS 3 Zrotation Xrotation Yrotation
                  End Site
                  {
                    OFFSET -2.33842 -0.294052 0.168128
                  }
                }
              }
              JOINT rPinky1
              {
                OFFSET -8.27202 -0.0477905 -0.4584
                CHANNELS 3 Zrotation Xrotation Yrotation
                JOINT rPinky2
                {
                  OFFSET -1.82734 -0.647385 -0.700984
                  CHANNELS 3 Zrotation Xrotation Yrotation
                  End Site
                  {
                    OFFSET -1.69225 -0.51767 -0.607171
                  }
                }
              }
            }
          }
        }
      }
      JOINT lCollar
      {
        OFFSET 2.68224 19.2634 -4.8768
        CHANNELS 3 Zrotation Xrotation Yrotation
        JOINT lShldr
        {
          OFFSET 8.77824 -1.95073 1.46304
          CHANNELS 3 Zrotation Xrotation Yrotation
          JOINT lForeArm
          {
            OFFSET 28.1742 -1.7115 0.48768
            CHANNELS 3 Zrotation Xrotation Yrotation
            JOINT lHand
            {
              OFFSET 22.5879 0.773209 7.07136
              CHANNELS 3 Zrotation Xrotation Yrotation
              JOINT lThumb1
              {
                OFFSET 1.2192 -0.487915 3.41376
                CHANNELS 3 Zrotation Xrotation Yrotation
                JOINT lThumb2
                {
                  OFFSET 3.37035 -0.52449 3.41376
                  CHANNELS 3 Zrotation Xrotation Yrotation
                  End Site
                  {
                    OFFSET 1.78271 -1.18214 1.43049
                  }
                }
              }
              JOINT lIndex1
              {
                OFFSET 7.75947 0.938293 5.60832
                CHANNELS 3 Zrotation Xrotation Yrotation
                JOINT lIndex2
                {
                  OFFSET 2.54057 -0.884171 1.56538
                  CHANNELS 3 Zrotation Xrotation Yrotation
                  End Site
                  {
                    OFFSET 1.62519 -0.234802 1.16502
                  }
                }
              }
              JOINT lMid1
              {
                OFFSET 8.24714 1.18213 3.41376
                CHANNELS 3 Zrotation Xrotation Yrotation
                JOINT lMid2
                {
                  OFFSET 3.10165 -0.590103 1.0647
                  CHANNELS 3 Zrotation Xrotation Yrotation
                  End Site
                  {
                    OFFSET 2.48547 -0.328903 0.83742
                  }
                }
              }
              JOINT lRing1
              {
                OFFSET 8.82822 0.546677 1.51678
                CHANNELS 3 Zrotation Xrotation Yrotation
                JOINT lRing2
                {
                  OFFSET 2.60934 -0.819778 -0.0198488
                  CHANNELS 3 Zrotation Xrotation Yrotation
                  End Site
                  {
                    OFFSET 2.33842 -0.294052 0.168128
                  }
                }
              }
              JOINT lPinky1
              {
                OFFSET 8.27202 -0.0477905 -0.4584
                CHANNELS 3 Zrotation Xrotation Yrotation
                JOINT lPinky2
                {
                  OFFSET 1.82734 -0.647385 -0.700984
                  CHANNELS 3 Zrotation Xrotation Yrotation
                  End Site
                  {
                    OFFSET 1.69225 -0.51767 -0.607171
                  }
                }
              }
            }
          }
        }
      }
    }
  }
  JOINT rButtock
  {
    OFFSET -8.77824 4.35084 1.2192
    CHANNELS 3 Zrotation Xrotation Yrotation
    JOINT rThigh
    {
      OFFSET 0 -1.70687 -2.19456
      CHANNELS 3 Zrotation Xrotation Yrotation
      JOINT rShin
      {
        OFFSET 0 -36.8199 0.73152
        CHANNELS 3 Zrotation Xrotation Yrotation
        JOINT rFoot
        {
          OFFSET 0.73152 -45.1104 -5.12064
          CHANNELS 3 Zrotation Xrotation Yrotation
          End Site
          {
            OFFSET -1.1221 -3.69964 12.103
          }
        }
      }
    }
  }
  JOINT lButtock
  {
    OFFSET 8.77824 4.35084 1.2192
    CHANNELS 3 Zrotation Xrotation Yrotation
    JOINT lThigh
    {
      OFFSET 0 -1.70687 -2.19456
      CHANNELS 3 Zrotation Xrotation Yrotation
      JOINT lShin
      {
        OFFSET 0 -36.8199 0.73152
        CHANNELS 3 Zrotation Xrotation Yrotation
        JOINT lFoot
        {
          OFFSET -0.73152 -45.1104 -5.12064
          CHANNELS 3 Zrotation Xrotation Yrotation
          End Site
          {
            OFFSET 1.1221 -3.69964 12.103
          }
        }
      }
    }
  }
}
MOTION
Frames:	4
Frame Time:	0.03333
-19.63850001245737 61.501399993896484 -29.295999590307474 -158.27800154685974 -106.42000079154968 165.21900057792664 -19.08509999513626 16.672800332307816 0.38416102062910795 1.792570073157549 -10.028000324964523 -0.5994400195777416 1.8779699318110943 14.222700297832489 15.729999840259552 -4.827720075845718 -19.15709987282753 29.628600776195526 0.0 0.0 0.0 0.0 0.0 0.0 0.0 0.0 0.0 110.42099833488464 43.42949956655502 -54.17200148105621 -28.04159939289093 -40.18939912319183 84.26169812679291 -9.358789846301079 -62.194697856903076 -15.45609936118126 -2.0975221559638157e-10 -1.3557155398302712e-10 -3.4788172342814505e-10 -3.4276581573067233e-10 -3.248601387895178e-10 -6.139089236967266e-10 -2.0975221559638157e-10 -1.3557155398302712e-10 -3.4788172342814505e-10 7.7309102565050125 5.474880114197731 0.41731400415301323 -2.0975221559638157e-10 -1.3557155398302712e-10 -3.4788172342814505e-10 2.905540131032467 0.9651830233633518 0.102901995414868 -2.0975221559638157e-10 -1.3557155398302712e-10 -3.4788172342814505e-10 10.27859978377819 0.7318009994924068 0.025912300043273717 -2.0975221559638157e-10 -1.3557155398302712e-10 -3.4788172342814505e-10 2.221670038998127 -0.733487019315362 -0.2089200052432716 0.0 0.0 0.0 -71.2787014245987 26.21060013771057 -16.59749999642372 25.78369975090027 -46.679298877716064 -97.00730323791504 7.8978100419044495 -59.46430027484894 13.783400058746338 1.0794565241667442e-09 -1.5347723092418164e-11 -6.548361852765083e-10 1.887769940367434e-09 5.3717030823463574e-11 -1.0743406164692715e-09 1.0794565241667442e-09 -1.5347723092418164e-11 -6.548361852765083e-10 -7.7309102565050125 5.474880114197731 -0.41731400415301323 1.0794565241667442e-09 -1.5347723092418164e-11 -6.548361852765083e-10 -2.905540131032467 0.9651830233633518 -0.102901995414868 1.0794565241667442e-09 -1.5347723092418164e-11 -6.548361852765083e-10 -10.27859978377819 0.7318009994924068 -0.025912300043273717 1.0794565241667442e-09 -1.5347723092418164e-11 -6.548361852765083e-10 -2.221670038998127 -0.733487019315362 0.2089200052432716 0.0 0.0 0.0 -82.35670208930969 -62.581000328063965 -71.65109932422638 -4.3440500646829605 78.76689791679382 4.912170097231865 1.6801399178802967 -0.2588520082645118 24.747999608516693 0.0 0.0 0.0 16.094699800014496 16.581999510526657 2.880230136215687 -0.21462500095367432 24.785000681877136 -2.0229999907314777 14.489600211381912 -14.553699642419815 36.35020047426224
-19.77870001643896 61.27190017700195 -29.290999590419233 -157.24499702453613 -106.92899823188782 164.156996011734 -19.54919993877411 16.245500296354294 1.021489966660738 1.7900900356471539 -10.017899796366692 -0.4227969842031598 1.8989900685846806 14.226499646902084 15.685799717903137 -4.631790071725845 -19.005199670791626 29.574999511241913 0.0 0.0 0.0 0.0 0.0 0.0 0.0 0.0 0.0 110.65700054168701 43.00240069627762 -54.371498823165894 -28.071200251579285 -40.02099931240082 83.95910203456879 -9.651170074939728 -62.67429828643799 -15.7853002846241 -1.4171064321999438e-09 -8.697043085703626e-11 -4.092726157978177e-11 -2.4351720639970154e-09 -2.3277380023500882e-10 -1.3301360013429075e-10 -1.4171064321999438e-09 -8.697043085703626e-11 -4.092726157978177e-11 7.7309102565050125 5.474880114197731 0.41731400415301323 -1.4171064321999438e-09 -8.697043085703626e-11 -4.092726157978177e-11 2.905540131032467 0.9651830233633518 0.102901995414868 -1.4171064321999438e-09 -8.697043085703626e-11 -4.092726157978177e-11 10.27859978377819 0.7318009994924068 0.025912300043273717 -1.4171064321999438e-09 -8.697043085703626e-11 -4.092726157978177e-11 2.221670038998127 -0.733487019315362 -0.2089200052432716 0.0 0.0 0.0 -72.55609810352325 20.830700397491455 -14.035699367523193 25.96239924430847 -46.34200036525726 -96.28260254859924 11.458700001239777 -65.25520026683807 17.783700227737427 -5.525180313270539e-10 -6.573941391252447e-10 -1.0231815394945443e-10 -9.464429240324534e-10 -1.1715428627212532e-09 -2.2509993868879974e-10 -5.525180313270539e-10 -6.573941391252447e-10 -1.0231815394945443e-10 -7.7309102565050125 5.474880114197731 -0.41731400415301323 -5.525180313270539e-10 -6.573941391252447e-10 -1.0231815394945443e-10 -2.905540131032467 0.9651830233633518 -0.102901995414868 -5.525180313270539e-10 -6.573941391252447e-10 -1.0231815394945443e-10 -10.27859978377819 0.7318009994924068 -0.025912300043273717 -5.525180313270539e-10 -6.573941391252447e-10 -1.0231815394945443e-10 -2.221670038998127 -0.733487019315362 0.2089200052432716 0.0 0.0 0.0 -83.31649839878082 -62.29390203952789 -72.21610128879547 -4.679379835724831 79.40929770469666 5.231490097939968 1.8619299866259098 -0.6316580018028617 24.656399488449097 0.0 0.0 0.0 16.163600385189056 16.454900354146957 2.622609995305538 -0.21043300163000822 24.989299178123474 -2.0243199728429317 14.457699358463287 -14.6383997797966 36.13029956817627
-20.044800005853176 61.07720184326172 -29.373999587260187 -157.50699520111084 -107.25799798965454 164.42000269889832 -19.9549001455307 15.7328000664711 1.5696099400520325 1.7292600497603416 -9.953520074486732 -0.2682949975132942 1.8730499222874641 14.228000342845917 15.643199533224106 -4.343609847128391 -19.020399749279022 29.54749882221222 0.0 0.0 0.0 0.0 0.0 0.0 0.0 2.5579538487363607e-12 0.0 110.85699677467346 42.66460061073303 -54.452099204063416 -28.099899888038635 -39.85030084848404 83.65389883518219 -9.781100302934647 -62.88770020008087 -15.931999683380127 -2.48121523327427e-09 -3.069544618483633e-11 3.2741809263825417e-10 -4.276898835087195e-09 -8.697043085703626e-11 4.501998773775995e-10 -2.48121523327427e-09 -3.069544618483633e-11 3.2741809263825417e-10 7.7309102565050125 5.474880114197731 0.41731400415301323 -2.48121523327427e-09 -3.069544618483633e-11 3.2741809263825417e-10 2.905540131032467 0.9651830233633518 0.102901995414868 -2.48121523327427e-09 -3.069544618483633e-11 3.2741809263825417e-10 10.27859978377819 0.7318009994924068 0.025912300043273717 -2.48121523327427e-09 -3.069544618483633e-11 3.2741809263825417e-10 2.221670038998127 -0.733487019315362 -0.2089200052432716 0.0 2.5579538487363607e-12 0.0 -73.25000166893005 16.063399761915207 -12.313199490308762 26.292099058628082 -45.685497522354126 -94.88240361213684 13.908800035715103 -68.09999942779541 20.463200211524963 -2.5477220333414152e-09 -1.099920154956635e-09 7.16227077646181e-10 -4.4150283429189585e-09 -2.1256596482999157e-09 1.064108801074326e-09 -2.5477220333414152e-09 -1.099920154956635e-09 7.16227077646181e-10 -7.7309102565050125 5.474880114197731 -0.41731400415301323 -2.5477220333414152e-09 -1.099920154956635e-09 7.16227077646181e-10 -2.905540131032467 0.9651830233633518 -0.102901995414868 -2.5477220333414152e-09 -1.099920154956635e-09 7.16227077646181e-10 -10.27859978377819 0.7318009994924068 -0.025912300043273717 -2.5477220333414152e-09 -1.099920154956635e-09 7.16227077646181e-10 -2.221670038998127 -0.733487019315362 0.2089200052432716 0.0 0.0 0.0 -84.26589846611023 -62.11600184440613 -72.85260021686554 -5.025969855487347 79.99939978122711 5.560729913413525 2.006410025060177 -0.9198199957609177 24.57219958305359 0.0 0.0 0.0 16.293499767780304 16.200299710035324 2.5932000763714314 -0.2039900003001094 25.3507000207901 -2.028620056807995 14.38969999551773 -14.670000225305557 35.853500962257385
-20.244000010192394 60.905399322509766 -29.410999587737024 -159.2050051689148 -107.21999645233154 165.7490050792694 -19.65420037508011 15.389899760484695 2.012910023331642 1.379620023071766 -9.878719970583916 -0.1466369954869151 1.6471100226044655 14.281800091266632 15.582400560379028 -3.8377200812101364 -19.335199892520905 29.535799026489258 0.0 0.0 0.0 0.0 0.0 0.0 0.0 0.0 0.0 110.95600247383118 42.515700459480286 -54.349000453948975 -28.128899931907654 -39.672100245952606 83.33500027656555 -10.109699741005898 -63.40130031108856 -16.300300508737564 -1.4426859706873074e-09 -4.348521542851813e-11 3.9904080040287226e-10 -2.496562956366688e-09 1.7905676941154525e-11 6.139089236967266e-10 -1.4426859706873074e-09 -4.348521542851813e-11 3.9904080040287226e-10 7.7309102565050125 5.474880114197731 0.41731400415301323 -1.4426859706873074e-09 -4.348521542851813e-11 3.9904080040287226e-10 2.905540131032467 0.9651830233633518 0.102901995414868 -1.4426859706873074e-09 -4.348521542851813e-11 3.9904080040287226e-10 10.27859978377819 0.7318009994924068 0.025912300043273717 -1.4426859706873074e-09 -4.348521542851813e-11 3.9904080040287226e-10 2.221670038998127 -0.733487019315362 -0.2089200052432716 0.0 0.0 0.0 -73.43909740447998 12.15780034661293 -11.130899861454964 26.675700545310974 -44.864400923252106 -93.13789486885071 11.705799847841263 -65.64189970493317 18.070600032806396 -4.302478373574559e-09 -1.9696244635269977e-10 1.9031176634598523e-09 -7.484572961402591e-09 -9.106315701501444e-10 3.0388491722987965e-09 -4.302478373574559e-09 -1.9696244635269977e-10 1.9031176634598523e-09 -7.7309102565050125 5.474880114197731 -0.41731400415301323 -4.302478373574559e-09 -1.9696244635269977e-10 1.9031176634598523e-09 -2.905540131032467 0.9651830233633518 -0.102901995414868 -4.302478373574559e-09 -1.9696244635269977e-10 1.9031176634598523e-09 -10.27859978377819 0.7318009994924068 -0.025912300043273717 -4.302478373574559e-09 -1.9696244635269977e-10 1.9031176634598523e-09 -2.221670038998127 -0.733487019315362 0.2089200052432716 0.0 0.0 0.0 -83.8849014043808 -62.02439904212952 -72.70919859409332 -5.320490151643753 80.45519828796387 5.8467797935009 2.184620015323162 -1.2854599859565496 24.49789971113205 0.0 0.0 0.0 16.861300617456436 16.39460027217865 2.6198099367320538 -0.20028100814670324 25.517399311065674 -2.0271800458431244 14.415599405765533 -14.6383997797966 35.87909996509552
